<svg id="visual" viewBox="0 0 900 600" width="900" height="600" xmlns="http://www.w3.org/2000/svg" xmlns:xlink="http://www.w3.org/1999/xlink" version="1.1"><rect x="0" y="0" width="900" height="600" fill="#2E373A"></rect><defs><linearGradient id="grad1_0" x1="33.3%" y1="0%" x2="100%" y2="100%"><stop offset="20%" stop-color="#2e373a" stop-opacity="1"></stop><stop offset="80%" stop-color="#2e373a" stop-opacity="1"></stop></linearGradient></defs><defs><linearGradient id="grad2_0" x1="0%" y1="0%" x2="66.7%" y2="100%"><stop offset="20%" stop-color="#2e373a" stop-opacity="1"></stop><stop offset="80%" stop-color="#2e373a" stop-opacity="1"></stop></linearGradient></defs><g transform="translate(900, 0)"><path d="M0 486.7C-54.9 460.3 -109.9 433.8 -171.8 414.8C-233.8 395.8 -302.8 384.3 -344.2 344.2C-385.6 304.1 -399.4 235.5 -418.5 173.4C-437.7 111.2 -462.2 55.6 -486.7 0L0 0Z" fill="#CBCBCB"></path></g><g transform="translate(0, 600)"><path d="M0 -486.7C68.4 -484.9 136.8 -483.1 186.3 -449.7C235.7 -416.3 266.2 -351.2 301.2 -301.2C336.2 -251.3 375.8 -216.4 407.4 -168.8C439.1 -121.1 462.9 -60.5 486.7 0L0 0Z" fill="#CBCBCB"></path></g></svg>